<svg xmlns="http://www.w3.org/2000/svg" viewBox="0 0 64 64"><path d="M20 21.5H7c-.827 0-1.5-.673-1.5-1.5s.673-1.5 1.5-1.5h10c1.378 0 2.5-1.121 2.5-2.5V5c0-1.379-1.122-2.5-2.5-2.5H7A2.503 2.503 0 004.5 5v15c0 1.379 1.122 2.5 2.5 2.5h13a.5.5 0 000-1zM5.5 5c0-.827.673-1.5 1.5-1.5h10c.827 0 1.5.673 1.5 1.5v11c0 .827-.673 1.5-1.5 1.5H7c-.562 0-1.082.187-1.5.501V5z"/><path d="M10 11.5a2.48 2.48 0 001.376-.416l2.77 2.77a.502.502 0 00.708 0 .5.5 0 000-.707l-2.77-2.77c.262-.396.416-.868.416-1.377 0-1.379-1.122-2.5-2.5-2.5S7.5 7.621 7.5 9s1.122 2.5 2.5 2.5zm0-4c.827 0 1.5.673 1.5 1.5s-.673 1.5-1.5 1.5S8.5 9.827 8.5 9s.673-1.5 1.5-1.5z"/><path d="M5.53 11.319c0-7.292-.027-7.013.73-7.52l.36-.24h5.36c5.163.001 5.374.009 5.706.212.19.115.44.365.556.555.203.334.21.545.211 6.15 0 6.283.018 6.083-.58 6.643l-.284.264-5.632.053c-5.103.048-5.665.07-5.972.239-.186.102-.365.185-.397.185-.032 0-.058-2.943-.058-6.541zm9.34 2.552c.37-.335.23-.566-1.25-2.06l-1.445-1.458.173-.433c.771-1.928-1.04-3.935-3.027-3.354a2.54 2.54 0 00-1.355 3.969c.61.84 2.05 1.222 3.045.806l.39-.162 1.433 1.434c.849.848 1.517 1.434 1.638 1.434a.71.71 0 00.398-.176z" fill="#c87137"/></svg>