<?xml version="1.0" encoding="UTF-8" standalone="no"?>
<svg
   xmlns:dc="http://purl.org/dc/elements/1.1/"
   xmlns:cc="http://creativecommons.org/ns#"
   xmlns:rdf="http://www.w3.org/1999/02/22-rdf-syntax-ns#"
   xmlns:svg="http://www.w3.org/2000/svg"
   xmlns="http://www.w3.org/2000/svg"
   xmlns:sodipodi="http://sodipodi.sourceforge.net/DTD/sodipodi-0.dtd"
   xmlns:inkscape="http://www.inkscape.org/namespaces/inkscape"
   version="1.1"
   x="0px"
   y="0px"
   viewBox="0 0 25 25"
   enable-background="new 0 0 25 25"
   xml:space="preserve"
   id="svg10"
   sodipodi:docname="library.svg"
   inkscape:version="0.92.3 (2405546, 2018-03-11)"><metadata
     id="metadata16"><rdf:RDF><cc:Work
         rdf:about=""><dc:format>image/svg+xml</dc:format><dc:type
           rdf:resource="http://purl.org/dc/dcmitype/StillImage" /><dc:title></dc:title></cc:Work></rdf:RDF></metadata><defs
     id="defs14" /><sodipodi:namedview
     pagecolor="#ffffff"
     bordercolor="#666666"
     borderopacity="1"
     objecttolerance="10"
     gridtolerance="10"
     guidetolerance="10"
     inkscape:pageopacity="0"
     inkscape:pageshadow="2"
     inkscape:window-width="1920"
     inkscape:window-height="1017"
     id="namedview12"
     showgrid="false"
     inkscape:zoom="9.44"
     inkscape:cx="12.5"
     inkscape:cy="12.5"
     inkscape:window-x="-8"
     inkscape:window-y="-8"
     inkscape:window-maximized="1"
     inkscape:current-layer="svg10" /><g
     id="g8"><g
       id="g6"><path
         d="M20,21.5H7c-0.827,0-1.5-0.673-1.5-1.5s0.673-1.5,1.5-1.5h10c1.378,0,2.5-1.121,2.5-2.5V5c0-1.379-1.122-2.5-2.5-2.5H7    C5.622,2.5,4.5,3.621,4.5,5v15c0,1.379,1.122,2.5,2.5,2.5h13c0.276,0,0.5-0.224,0.5-0.5S20.276,21.5,20,21.5z M5.5,5    c0-0.827,0.673-1.5,1.5-1.5h10c0.827,0,1.5,0.673,1.5,1.5v11c0,0.827-0.673,1.5-1.5,1.5H7c-0.562,0-1.082,0.187-1.5,0.501V5z"
         id="path2" /><path
         d="M10,11.5c0.509,0,0.981-0.154,1.376-0.416l2.77,2.77C14.244,13.951,14.372,14,14.5,14s0.256-0.049,0.354-0.146    c0.195-0.195,0.195-0.512,0-0.707l-2.77-2.77C12.346,9.981,12.5,9.509,12.5,9c0-1.379-1.122-2.5-2.5-2.5S7.5,7.621,7.5,9    S8.622,11.5,10,11.5z M10,7.5c0.827,0,1.5,0.673,1.5,1.5s-0.673,1.5-1.5,1.5S8.5,9.827,8.5,9S9.173,7.5,10,7.5z"
         id="path4" /></g></g><path
     style="fill:#c87137;stroke-width:0.10593221"
     d="M 5.5298256,11.318856 C 5.5300092,4.0266711 5.5028883,4.305811 6.260369,3.7997811 L 6.6203142,3.559322 11.980708,3.5597182 c 5.16199,3.814e-4 5.373172,0.00819 5.705642,0.2108962 0.189886,0.1157751 0.439972,0.3658617 0.555747,0.5557481 0.203272,0.3333911 0.210514,0.5446099 0.210897,6.1502965 4.23e-4,6.28204 0.01786,6.082571 -0.580576,6.641985 l -0.283306,0.264831 -5.632479,0.05297 c -5.1029236,0.04799 -5.6643545,0.0704 -5.9714995,0.238347 -0.1864605,0.10196 -0.3652211,0.185381 -0.3972458,0.185381 -0.032025,0 -0.058153,-2.943591 -0.058062,-6.541313 z m 9.3400114,2.552438 c 0.369978,-0.334826 0.229653,-0.56594 -1.250769,-2.059998 L 12.174577,10.353499 12.347882,9.9203686 C 13.119487,7.9919389 11.307781,5.9845168 9.3206411,6.5660992 7.5883346,7.0730986 6.9064995,9.071298 7.9664966,10.534581 c 0.6085866,0.84013 2.0501894,1.222243 3.0442264,0.806908 l 0.389512,-0.162749 1.433935,1.433935 c 0.848505,0.848505 1.517223,1.433935 1.63794,1.433935 0.112202,0 0.291179,-0.07889 0.397727,-0.175316 z"
     id="path18"
     inkscape:connector-curvature="0" /></svg>